<?xml version="1.0" encoding="UTF-8"?>
<svg version="1.1" xmlns="http://www.w3.org/2000/svg" width="512" height="512">
<path d="M0 0 C1.52724449 -0.00786278 1.52724449 -0.00786278 3.08534241 -0.0158844 C5.21549574 -0.02225558 7.3456845 -0.02103198 9.47583008 -0.01245117 C12.73906982 -0.00386305 16.00060098 -0.03289633 19.26367188 -0.06445312 C21.34244739 -0.06606347 23.42122601 -0.0654908 25.5 -0.0625 C26.47291489 -0.07373398 27.44582977 -0.08496796 28.44822693 -0.09654236 C35.10079894 -0.02759669 35.10079894 -0.02759669 38.42797852 2.21459961 C39.78515625 4.43359375 39.78515625 4.43359375 39.78515625 8.43359375 C46.38515625 8.43359375 52.98515625 8.43359375 59.78515625 8.43359375 C60.11515625 6.78359375 60.44515625 5.13359375 60.78515625 3.43359375 C61.9764396 1.64486355 61.9764396 1.64486355 63.78515625 0.43359375 C66.44471157 0.05639559 66.44471157 0.05639559 69.72462273 0.05327702 C70.9731178 0.04483707 72.22161287 0.03639713 73.50794113 0.02770144 C74.90111842 0.03349731 76.29429454 0.03957838 77.68746948 0.0459137 C79.16160111 0.04174339 80.63572953 0.03626755 82.10985196 0.02959388 C86.17120442 0.01507901 90.23235501 0.01940283 94.29371881 0.0267607 C98.67025337 0.03147559 103.04674317 0.01899699 107.42326355 0.00874329 C116.00385591 -0.00848702 124.58437517 -0.00927545 133.16498034 -0.00404381 C140.14230367 -0.00000634 147.11960535 -0.00144065 154.09692764 -0.00679207 C155.58521987 -0.0079147 155.58521987 -0.0079147 157.1035786 -0.00906001 C159.1191825 -0.01059148 161.13478639 -0.01212983 163.15039028 -0.01367498 C182.07249524 -0.02741698 200.99455892 -0.02195191 219.91666295 -0.01048977 C237.21538916 -0.00057028 254.51400822 -0.01347281 271.8127179 -0.03742396 C289.57555172 -0.06183211 307.33833567 -0.0714177 325.10118592 -0.06477123 C335.07316393 -0.06128094 345.04505967 -0.0634978 355.01702499 -0.08102226 C363.51244192 -0.09576629 372.00771874 -0.0963517 380.50313298 -0.07895135 C384.83487205 -0.07045433 389.16636108 -0.06825954 393.49808693 -0.08360291 C397.47105185 -0.09750051 401.44355376 -0.09262227 405.41649224 -0.07336367 C406.84663654 -0.06961857 408.27681837 -0.07248225 409.70692907 -0.08297532 C425.76232604 -0.19231113 437.72963097 3.81696118 449.53515625 14.74609375 C459.39357341 25.16253452 462.24769658 36.89079808 462.1728363 50.86862183 C462.18091461 52.69408592 462.18091461 52.69408592 462.18915612 54.55642807 C462.20092782 57.9085102 462.19939286 61.26009088 462.1919893 64.61215234 C462.18723885 68.23734823 462.19978402 71.86249198 462.21000671 75.4876709 C462.22716359 82.57971654 462.22804119 89.67167345 462.22279381 96.76373444 C462.21874497 102.53094607 462.22020414 108.29813156 462.22554207 114.06534195 C462.22629049 114.88758002 462.22703891 115.7098181 462.22781001 116.55697248 C462.22934156 118.22759437 462.23087991 119.89821626 462.23242498 121.56883813 C462.24613883 137.2199376 462.24072024 152.87098701 462.22923977 168.52208532 C462.21930917 182.82381563 462.23224704 197.12541652 462.25617396 211.42712687 C462.28058774 226.13123621 462.2901672 240.83528533 462.28352123 255.53941453 C462.280034 263.78701486 462.28222825 272.03451572 462.29977226 280.28210068 C462.31452281 287.30322703 462.31509259 294.32418385 462.29770135 301.34530698 C462.28921221 304.92359011 462.28699012 308.50157075 462.30235291 312.0798378 C462.31883978 315.96824465 462.30399965 319.85618912 462.28636169 323.74459839 C462.2959667 324.86232569 462.30557171 325.98005298 462.31546777 327.13165081 C462.18454555 341.21567823 456.95357399 351.96477439 447.47265625 362.18359375 C435.64175921 373.35575488 422.17278878 374.90803942 406.5390625 374.8671875 C404.99494703 374.87175823 403.45083358 374.87706643 401.90672302 374.8830719 C398.69367116 374.89194494 395.48086872 374.88964158 392.26782227 374.87963867 C388.15301075 374.86807475 384.03904802 374.88850172 379.92434788 374.91755581 C376.74587063 374.93588899 373.56759879 374.93563258 370.38908195 374.92991829 C368.87123346 374.92976515 367.35337099 374.93580324 365.8355732 374.94820976 C363.71999276 374.9630885 361.60600889 374.95247381 359.49047852 374.93530273 C358.28899673 374.93513657 357.08751495 374.9349704 355.84962463 374.93479919 C352.19748227 374.33747744 350.98999097 373.35350425 348.78515625 370.43359375 C348.78515625 369.77359375 348.78515625 369.11359375 348.78515625 368.43359375 C341.85515625 368.43359375 334.92515625 368.43359375 327.78515625 368.43359375 C327.12515625 370.08359375 326.46515625 371.73359375 325.78515625 373.43359375 C323.1752638 374.73853997 321.26781413 374.56263557 318.3435545 374.56781483 C317.18065197 374.57227267 316.01774944 374.57673051 314.81960744 374.58132344 C312.88644578 374.5810469 312.88644578 374.5810469 310.91423035 374.58076477 C309.53996006 374.58406258 308.16569074 374.58778797 306.79142267 374.59190625 C303.00151066 374.60194469 299.21161448 374.60564603 295.42169106 374.60829556 C291.33895131 374.61219342 287.25622416 374.62177243 283.17349243 374.63050842 C273.30395124 374.65029247 263.434409 374.66034368 253.56485292 374.66923621 C248.91677802 374.67361788 244.26870426 374.67898518 239.62063026 374.68422508 C224.16666367 374.70124294 208.71269779 374.71573522 193.25872326 374.72297382 C189.24613125 374.72488373 185.23353925 374.72680406 181.22094727 374.72875977 C180.22363236 374.72924351 179.22631745 374.72972725 178.19878087 374.73022565 C162.05750498 374.73851869 145.91630338 374.76384084 129.7750599 374.79634044 C113.20104044 374.82943895 96.62705867 374.8474253 80.05300599 374.85061806 C70.74834073 374.8527811 61.44378364 374.86149889 52.13915062 374.88707924 C44.21098699 374.90882477 36.28295778 374.91681793 28.3547677 374.90711246 C24.31263131 374.90257824 20.27077203 374.90440222 16.22867393 374.9238739 C12.52028539 374.94158278 8.8123745 374.94044607 5.10398034 374.92497661 C3.14325931 374.92150111 1.18253283 374.93756935 -0.77811748 374.95458108 C-15.75550707 374.84672551 -27.03001279 370.2441687 -37.96484375 360.12109375 C-47.82326091 349.70465298 -50.67738408 337.97638942 -50.6025238 323.99856567 C-50.60790934 322.78158961 -50.61329488 321.56461355 -50.61884362 320.31075943 C-50.63061532 316.9586773 -50.62908036 313.60709662 -50.6216768 310.25503516 C-50.61692635 306.62983927 -50.62947152 303.00469552 -50.63969421 299.3795166 C-50.65685109 292.28747096 -50.65772869 285.19551405 -50.65248131 278.10345306 C-50.64843247 272.33624143 -50.64989164 266.56905594 -50.65522957 260.80184555 C-50.65597799 259.97960748 -50.65672641 259.1573694 -50.65749751 258.31021502 C-50.65902906 256.63959313 -50.66056741 254.96897124 -50.66211248 253.29834937 C-50.67582633 237.6472499 -50.67040774 221.99620049 -50.65892727 206.34510218 C-50.64899667 192.04337187 -50.66193454 177.74177098 -50.68586146 163.44006063 C-50.71027524 148.73595129 -50.7198547 134.03190217 -50.71320873 119.32777297 C-50.7097215 111.08017264 -50.71191575 102.83267178 -50.72945976 94.58508682 C-50.74421031 87.56396047 -50.74478009 80.54300365 -50.72738885 73.52188052 C-50.71889971 69.94359739 -50.71667762 66.36561675 -50.73204041 62.7873497 C-50.74852728 58.89894285 -50.73368715 55.01099838 -50.71604919 51.12258911 C-50.7256542 50.00486181 -50.73525921 48.88713452 -50.74515527 47.73553669 C-50.61423305 33.65150927 -45.38326149 22.90241311 -35.90234375 12.68359375 C-25.70327426 3.05240118 -13.73854623 -0.04206686 0 0 Z " fill="#010001" transform="translate(50.21484375,68.56640625)"/>
<path d="M0 0 C45.21 0 90.42 0 137 0 C137.0825 18.253125 137.165 36.50625 137.25 55.3125 C137.28641602 61.05954346 137.32283203 66.80658691 137.36035156 72.7277832 C137.37841797 79.78747559 137.37841797 79.78747559 137.3817749 83.10050964 C137.3878862 85.39672452 137.40188982 87.69292717 137.42230225 89.98905945 C137.45178894 93.48292069 137.45561717 96.97600279 137.45410156 100.4699707 C137.468494 101.4796481 137.48288643 102.4893255 137.497715 103.52959919 C137.43398816 114.58136008 134.02913445 122.9676579 126.37109375 130.90234375 C123.1611679 133.74209693 120.02033662 135.56916453 116 137 C114.66239876 137.50884483 114.66239876 137.50884483 113.29777527 138.02796936 C109.7698442 139.06783922 106.88809057 139.25779864 103.21606445 139.27124023 C102.24174469 139.27908035 102.24174469 139.27908035 101.2477417 139.28707886 C99.84824835 139.29726109 98.44871775 139.3030891 97.04918861 139.30496025 C94.83398061 139.30864245 92.61921287 139.32541555 90.40409851 139.34571838 C84.11022099 139.40097755 77.81628181 139.43189452 71.5222168 139.45629883 C67.66371466 139.47215724 63.80553192 139.50234629 59.94719505 139.54106331 C58.47880626 139.55271678 57.01036046 139.55864369 55.54192543 139.55874443 C53.49285993 139.55893613 51.44468009 139.57717086 49.39575195 139.59936523 C47.64751884 139.60697121 47.64751884 139.60697121 45.8639679 139.61473083 C43.0383678 139.78361796 43.0383678 139.78361796 41.1627655 141.21253967 C39.60629125 143.36387829 39.60629125 143.36387829 39 148 C32.07 148 25.14 148 18 148 C17.34 146.02 16.68 144.04 16 142 C13.05709906 139.05709906 9.91635448 139.69201463 5.97021484 139.68115234 C5.12743799 139.67099909 4.28466114 139.66084583 3.4163456 139.6503849 C0.68121408 139.61968517 -2.05381299 139.60257428 -4.7890625 139.5859375 C-6.47486273 139.56900956 -8.16065429 139.55119367 -9.84643555 139.5324707 C-16.10585739 139.4692041 -22.36544367 139.4231557 -28.625 139.375 C-42.60875 139.25125 -56.5925 139.1275 -71 139 C-71 107.32 -71 75.64 -71 43 C-65.39231327 48.60768673 -65.39231327 48.60768673 -63.0625 52.1015625 C-62.55976563 52.83890625 -62.05703125 53.57625 -61.5390625 54.3359375 C-60.5094005 55.86736372 -59.48337856 57.40124338 -58.4609375 58.9375 C-55.73166753 62.92643304 -53.58407178 66.03321127 -49 68 C-44.94137623 68.51655212 -42.57369669 68.247477 -38.8125 66.625 C-33.63553534 61.79316631 -32.35690832 55.72834826 -30.85546875 48.96875 C-30.65123291 48.0715625 -30.44699707 47.174375 -30.23657227 46.25 C-29.83240503 44.43261887 -29.45345868 42.60942464 -29.10131836 40.78125 C-28.57491273 38.38213861 -28.01999263 36.2343667 -27 34 C-24.5546875 32.51953125 -24.5546875 32.51953125 -21 32 C-20.16033691 31.86062012 -19.32067383 31.72124023 -18.45556641 31.57763672 C-14.44810616 30.91645022 -10.4341016 30.31562898 -6.41015625 29.76367188 C-0.1165014 28.77747498 3.58784301 27.68424001 8 23 C9.53597454 19.92805092 9.2265038 17.39755707 9 14 C6.88239137 8.47068856 3.69346175 4.92461567 0 0 Z " fill="#FEC7DC" transform="translate(360,289)"/>
<path d="M0 0 C45.21 0 90.42 0 137 0 C135.02 2.64 133.04 5.28 131 8 C128.24680448 12.49688602 127.24574707 15.72022951 128 21 C130.03239838 24.77445414 131.39237085 26.36701258 135.37109375 27.93359375 C144.38531943 30.34655569 153.78688732 31.55661235 163 33 C164.5624568 37.4406667 165.98569523 41.88344379 167.20703125 46.4296875 C167.52667847 47.61618896 167.52667847 47.61618896 167.8527832 48.82666016 C168.27857219 50.42091947 168.69786873 52.01692937 169.11010742 53.61474609 C170.47526919 58.71945448 172.00196076 62.93060222 175.75 66.8125 C179.91693279 69.01171453 183.85676586 68.25884547 188.3125 67.25 C191.49708388 65.7687982 191.57543452 65.06616529 193 62 C195.07658125 58.87381061 197.29870084 55.85182086 199.5 52.8125 C200.09425781 51.98041016 200.68851563 51.14832031 201.30078125 50.29101562 C201.87183594 49.50017578 202.44289062 48.70933594 203.03125 47.89453125 C203.81338867 46.80942261 203.81338867 46.80942261 204.61132812 45.70239258 C206 44 206 44 208 43 C208 74.68 208 106.36 208 139 C162.76208315 139.16121214 162.76208315 139.16121214 143.79296875 139.1953125 C130.69964322 139.21903921 117.60642072 139.24691947 104.51318359 139.30175781 C94.97708252 139.34167872 85.4410651 139.36744545 75.90488279 139.37635398 C70.85746933 139.38155981 65.81029515 139.39375927 60.76295853 139.42292023 C56.00726351 139.45017231 51.25190521 139.45842524 46.49613953 139.45243073 C44.75553428 139.45352659 43.01491719 139.46142196 41.27437973 139.4768219 C27.76550989 139.59043208 18.29030615 138.06863732 8.203125 128.44140625 C2.48009455 122.09939556 -0.12982573 115.6747271 -0.12025452 107.14677429 C-0.12163201 106.19947543 -0.12300951 105.25217657 -0.12442875 104.27617168 C-0.12083064 103.24490563 -0.11723253 102.21363958 -0.11352539 101.15112305 C-0.11364593 100.04035558 -0.11376646 98.92958811 -0.11389065 97.78516102 C-0.11314499 94.19399314 -0.1055325 90.60287733 -0.09765625 87.01171875 C-0.09618576 84.79284693 -0.09516571 82.57397477 -0.09460449 80.35510254 C-0.08936405 72.13256307 -0.07540283 63.91003102 -0.0625 55.6875 C-0.041875 37.310625 -0.02125 18.93375 0 0 Z " fill="#FEC7DC" transform="translate(15,289)"/>
<path d="M0 0 C6.93 0 13.86 0 21 0 C21.99 2.475 21.99 2.475 23 5 C25.33853903 6.16926952 26.7340956 6.13705182 29.34060669 6.15821838 C30.70782364 6.17290161 30.70782364 6.17290161 32.10266113 6.18788147 C33.60669495 6.19651466 33.60669495 6.19651466 35.14111328 6.20532227 C36.19479095 6.21522186 37.24846863 6.22512146 38.33407593 6.23532104 C41.82946498 6.26700001 45.32486764 6.29171876 48.8203125 6.31640625 C51.23884441 6.33697025 53.65737267 6.35796657 56.07589722 6.37937927 C62.45124368 6.43465713 68.82662288 6.48404118 75.20202637 6.53222656 C82.8462127 6.59121646 90.49033901 6.65747579 98.13447571 6.72252655 C109.75628058 6.82060792 121.37812338 6.90941489 133 7 C133 33.73 133 60.46 133 88 C129.15317225 86.4612689 125.52791465 84.81018984 121.8125 83 C108.63120546 76.94133323 94.93414102 75.93836246 81.09375 80.7421875 C65.05727266 87.26206844 52.63497885 97.82610983 45.0078125 113.48046875 C40.30081991 125.24795024 42 131.16407499 42 146 C3.39 146 -35.22 146 -75 146 C-75.0825 127.56125 -75.165 109.1225 -75.25 90.125 C-75.28641602 84.31664551 -75.32283203 78.50829102 -75.36035156 72.52392578 C-75.37841797 65.39624023 -75.37841797 65.39624023 -75.3817749 62.05270386 C-75.38789155 59.73227871 -75.40190647 57.41186578 -75.42230225 55.09152222 C-75.45174563 51.56355926 -75.45561859 48.0363689 -75.45410156 44.50830078 C-75.468494 43.48565691 -75.48288643 42.46301304 -75.497715 41.40937996 C-75.43620128 30.66306668 -71.87590583 22.95335449 -64.515625 15.203125 C-59.01043934 10.38181334 -52.05507323 6.91815263 -44.66796875 6.82641602 C-43.79696533 6.81292618 -42.92596191 6.79943634 -42.02856445 6.78553772 C-41.09101318 6.77509933 -40.15346191 6.76466095 -39.1875 6.75390625 C-37.20572456 6.72097935 -35.22395383 6.68776752 -33.2421875 6.65429688 C-30.11494063 6.60680249 -26.98771445 6.56234619 -23.86035156 6.52319336 C-20.84420209 6.48355715 -17.82843824 6.43200486 -14.8125 6.37890625 C-13.87494873 6.3704921 -12.93739746 6.36207794 -11.97143555 6.35340881 C-11.10043213 6.33676682 -10.22942871 6.32012482 -9.33203125 6.30297852 C-8.18311401 6.28751732 -8.18311401 6.28751732 -7.01098633 6.27174377 C-4.68589545 6.10713408 -4.68589545 6.10713408 -2 4 C-1.34 2.68 -0.68 1.36 0 0 Z " fill="#FEC7DC" transform="translate(90,77)"/>
<path d="M0 0 C44.94683938 -0.16121214 44.94683938 -0.16121214 63.80273438 -0.1953125 C76.81476152 -0.21903356 89.82668494 -0.24689794 102.83862305 -0.30175781 C112.31577007 -0.34169545 121.79283283 -0.3674494 131.27006167 -0.37635398 C136.28564971 -0.38155699 141.30099674 -0.39373834 146.31650734 -0.42292023 C151.04347884 -0.45019882 155.77011149 -0.45841995 160.49715424 -0.45243073 C162.22605166 -0.45352542 163.95496117 -0.46140487 165.68379021 -0.4768219 C179.26390002 -0.5919189 189.69165847 0.78510737 199.83203125 10.5546875 C205.14712817 16.54973376 208.12917644 22.74120484 208.12025452 30.77093506 C208.12232076 32.2024119 208.12232076 32.2024119 208.12442875 33.66280746 C208.12083064 34.70703999 208.11723253 35.75127251 208.11352539 36.82714844 C208.11364593 37.94770756 208.11376646 39.06826668 208.11389065 40.22278214 C208.11314399 43.85166658 208.10552691 47.48049973 208.09765625 51.109375 C208.09618607 53.34912084 208.09516583 55.58886703 208.09460449 57.82861328 C208.08936045 66.13574743 208.07539926 74.44287422 208.0625 82.75 C208.041875 101.3125 208.02125 119.875 208 139 C169.39 139 130.78 139 91 139 C91 131.41 91 123.82 91 116 C89.84039496 111.49538043 89.12308203 108.83077844 87 105 C86.34644531 103.73736328 86.34644531 103.73736328 85.6796875 102.44921875 C76.37173281 85.68981399 61.88664852 77.0563255 44.09765625 71.39453125 C29.72222632 68.69077255 16.52257515 72.50641236 4.14453125 79.828125 C2 81 2 81 0 81 C0 54.27 0 27.54 0 0 Z " fill="#FEC7DC" transform="translate(289,84)"/>
<path d="M0 0 C45.21 0 90.42 0 137 0 C137.0825 18.253125 137.165 36.50625 137.25 55.3125 C137.28641602 61.05954346 137.32283203 66.80658691 137.36035156 72.7277832 C137.37841797 79.78747559 137.37841797 79.78747559 137.3817749 83.10050964 C137.3878862 85.39672452 137.40188982 87.69292717 137.42230225 89.98905945 C137.45178894 93.48292069 137.45561717 96.97600279 137.45410156 100.4699707 C137.468494 101.4796481 137.48288643 102.4893255 137.497715 103.52959919 C137.43398816 114.58136008 134.02913445 122.9676579 126.37109375 130.90234375 C123.1611679 133.74209693 120.02033662 135.56916453 116 137 C114.66239876 137.50884483 114.66239876 137.50884483 113.29777527 138.02796936 C109.7698442 139.06783922 106.88809057 139.25779864 103.21606445 139.27124023 C102.24174469 139.27908035 102.24174469 139.27908035 101.2477417 139.28707886 C99.84824835 139.29726109 98.44871775 139.3030891 97.04918861 139.30496025 C94.83398061 139.30864245 92.61921287 139.32541555 90.40409851 139.34571838 C84.11022099 139.40097755 77.81628181 139.43189452 71.5222168 139.45629883 C67.66371466 139.47215724 63.80553192 139.50234629 59.94719505 139.54106331 C58.47880626 139.55271678 57.01036046 139.55864369 55.54192543 139.55874443 C53.49285993 139.55893613 51.44468009 139.57717086 49.39575195 139.59936523 C47.64751884 139.60697121 47.64751884 139.60697121 45.8639679 139.61473083 C43.0383678 139.78361796 43.0383678 139.78361796 41.1627655 141.21253967 C39.60629125 143.36387829 39.60629125 143.36387829 39 148 C32.07 148 25.14 148 18 148 C17.34 146.02 16.68 144.04 16 142 C13.05709906 139.05709906 9.91635448 139.69201463 5.97021484 139.68115234 C5.12743799 139.67099909 4.28466114 139.66084583 3.4163456 139.6503849 C0.68121408 139.61968517 -2.05381299 139.60257428 -4.7890625 139.5859375 C-6.47486273 139.56900956 -8.16065429 139.55119367 -9.84643555 139.5324707 C-16.10585739 139.4692041 -22.36544367 139.4231557 -28.625 139.375 C-42.60875 139.25125 -56.5925 139.1275 -71 139 C-71 107.32 -71 75.64 -71 43 C-69 45 -69 45 -68.79745483 47.97390747 C-68.81966095 49.24853851 -68.84186707 50.52316956 -68.86474609 51.83642578 C-68.87893837 52.89024948 -68.87893837 52.89024948 -68.89341736 53.96536255 C-68.9271506 56.29227418 -68.97524964 58.61865898 -69.0234375 60.9453125 C-69.04959895 62.55669774 -69.07486642 64.16809773 -69.09927368 65.7795105 C-69.16598046 70.02446115 -69.24486089 74.26910246 -69.32623291 78.51379395 C-69.40709877 82.84371043 -69.47651257 87.1738086 -69.546875 91.50390625 C-69.68667522 100.00282472 -69.83932977 108.50145059 -70 117 C-50.61503998 116.93938781 -31.23021767 116.86183311 -11.84540749 116.76428509 C-2.84405312 116.71938062 6.15726215 116.67995368 15.15869141 116.65356445 C23.00725917 116.63054098 30.85570266 116.59709455 38.70417178 116.55129844 C42.85723673 116.52742472 47.01017907 116.5086577 51.163311 116.50238609 C55.0785862 116.49630863 58.99354787 116.47621361 62.90870667 116.44572449 C64.33966006 116.43698668 65.77065449 116.43321278 67.20163345 116.43499184 C80.31495929 116.44613972 91.71293047 114.3985216 101.78515625 105.40625 C109.59958708 96.9322892 113.28556591 86.06255909 113.31884766 74.67797852 C113.32900091 73.86433555 113.33915417 73.05069258 113.3496151 72.21239376 C113.38003931 69.60123527 113.39734608 66.99018458 113.4140625 64.37890625 C113.43101444 62.75776248 113.44883299 61.13662753 113.4675293 59.51550293 C113.53050488 53.53126978 113.57675462 47.54687004 113.625 41.5625 C113.810625 21.4840625 113.810625 21.4840625 114 1 C76.38 1 38.76 1 0 1 C0 0.67 0 0.34 0 0 Z " fill="#FBA2C4" transform="translate(360,289)"/>
<path d="M0 0 C10.9596902 7.66781702 20.0271448 16.23664548 28 27 C25.33487169 29.0528691 22.61338758 30.86370764 19.75 32.625 C12.83442011 37.2125629 7.16895487 43.27567251 4 51 C-3.70905956 50.40699542 -10.32146852 46.02955645 -16 41 C-16.928125 39.88625 -16.928125 39.88625 -17.875 38.75 C-20.00639137 36.67563772 -20.00639137 36.67563772 -23.5625 36.5625 C-26.86439803 36.77669981 -26.86439803 36.77669981 -29 38.0625 C-30.68098462 41.3194077 -29.93882683 43.53807607 -29 47 C-23.31058731 55.80941319 -12.41944426 62.38388343 -2.23828125 64.6015625 C-1.49964844 64.73304688 -0.76101562 64.86453125 0 65 C0.14695312 65.94359375 0.29390625 66.8871875 0.4453125 67.859375 C2.00915934 76.81105002 4.46182903 84.02423245 9 92 C9.33 92.66 9.66 93.32 10 94 C-12.40172613 95.26009709 -32.09672728 87.20890051 -49.1875 72.8125 C-57.733589 64.81688372 -63.83336358 55.29056676 -67 44 C-67.18949219 43.38640625 -67.37898437 42.7728125 -67.57421875 42.140625 C-69.37104574 33.10703609 -68.83107981 23.89579607 -64 16 C-63.38125 14.88044922 -63.38125 14.88044922 -62.75 13.73828125 C-56.47121797 3.23202381 -45.54971038 -3.92245662 -34 -7.64453125 C-21.76399509 -9.81928994 -10.42224344 -6.31651118 0 0 Z " fill="#FA347F" transform="translate(214,177)"/>
<path d="M0 0 C2.46402425 1.69995738 4.83500216 3.47623837 7.1953125 5.31640625 C8.0821875 5.91453125 8.9690625 6.51265625 9.8828125 7.12890625 C18.05339275 14.85783352 22.26843374 23.39035419 22.6328125 34.50390625 C22.2557058 50.32667495 15.40323387 62.51226223 4.77734375 73.8984375 C-11.92892585 89.54318921 -33.16930533 96.96415963 -55.8046875 96.31640625 C-55.32257813 95.38699219 -54.84046875 94.45757812 -54.34375 93.5 C-53.70540317 92.2514687 -53.06740072 91.0027613 -52.4296875 89.75390625 C-52.11257813 89.14482422 -51.79546875 88.53574219 -51.46875 87.90820312 C-48.70512157 82.46730965 -46.82243598 76.98501682 -46.1796875 70.87890625 C-46.0559375 69.70328125 -45.9321875 68.52765625 -45.8046875 67.31640625 C-45.04285156 67.09726563 -44.28101563 66.878125 -43.49609375 66.65234375 C-36.39099907 64.47025475 -30.70087028 61.83213354 -24.8046875 57.31640625 C-24.216875 56.88070312 -23.6290625 56.445 -23.0234375 55.99609375 C-18.97399026 52.83990693 -16.16979477 49.87215712 -15.4296875 44.69140625 C-15.65663894 42.31624515 -15.65663894 42.31624515 -16.8671875 40.50390625 C-20.10627143 38.51866126 -22.06969063 38.70411168 -25.8046875 39.31640625 C-27.97578307 40.86656849 -29.8314461 42.58935925 -31.7578125 44.43359375 C-36.59883218 48.88659276 -43.06832671 53.31640625 -49.8046875 53.31640625 C-51.1640625 51.375 -51.1640625 51.375 -52.5546875 48.75390625 C-57.90252517 39.48344926 -64.26847264 35.02415789 -73.8046875 30.31640625 C-63.44373912 14.07622205 -47.78741459 0.23884659 -29.03125 -4.98828125 C-18.67318699 -7.22040621 -9.11128935 -5.46931157 0 0 Z " fill="#FA347F" transform="translate(343.8046875,174.68359375)"/>
<path d="M0 0 C15.89910897 -0.27119719 31.79637739 -0.49210469 47.6971283 -0.62174606 C55.08066778 -0.68354918 62.46266537 -0.7677529 69.84521484 -0.90527344 C76.28223337 -1.02512336 82.71813529 -1.10235257 89.15623856 -1.12906194 C92.56391956 -1.14467087 95.96840729 -1.18115966 99.37506104 -1.26876068 C120.18519797 -1.7452746 120.18519797 -1.7452746 124.90060997 1.17844391 C128.08121636 4.27890809 129.527412 7.89530084 131 12 C136.81725743 20.21247905 144.66564755 26.51899452 153 32 C152.34 33.32 151.68 34.64 151 36 C101.17 36 51.34 36 0 36 C0 24.12 0 12.24 0 0 Z " fill="#FD75A7" transform="translate(15,238)"/>
<path d="M0 0 C2.16703224 -0.36914349 2.16703224 -0.36914349 4.9100647 -0.36076355 C5.94775497 -0.36488754 6.98544525 -0.36901154 8.05458069 -0.3732605 C9.19753098 -0.36247467 10.34048126 -0.35168884 11.51806641 -0.34057617 C12.71804764 -0.34101425 13.91802887 -0.34145233 15.15437317 -0.34190369 C18.44982394 -0.34016861 21.74471466 -0.32509762 25.04006624 -0.30418181 C28.48204692 -0.2854599 31.92403461 -0.28366813 35.36605835 -0.28010559 C41.88614358 -0.27077188 48.40607837 -0.24614031 54.92609727 -0.21605712 C62.34798846 -0.18255423 69.76988674 -0.16603748 77.19183469 -0.15097082 C92.46132515 -0.11959176 107.73060831 -0.06456332 123 0 C123 11.88 123 23.76 123 36 C73.17 36 23.34 36 -28 36 C-28.66 34.68 -29.32 33.36 -30 32 C-29.21496094 31.43152344 -28.42992187 30.86304688 -27.62109375 30.27734375 C-16.81366721 22.33421676 -9.39264191 14.1416599 -2 3 C-1.34 2.01 -0.68 1.02 0 0 Z " fill="#FD75A7" transform="translate(374,238)"/>
<path d="M0 0 C3.47047807 1.15682602 3.97788554 1.98094726 6.03125 4.89453125 C6.59457031 5.68537109 7.15789062 6.47621094 7.73828125 7.29101562 C8.31964844 8.12310547 8.90101563 8.95519531 9.5 9.8125 C10.65610156 11.44411561 11.81234677 13.07562944 12.96875 14.70703125 C13.47857422 15.4338208 13.98839844 16.16061035 14.51367188 16.90942383 C15.9525821 19.00279497 15.9525821 19.00279497 17.57034779 20.81824112 C19.29136268 23.44464178 19.37062834 24.88144452 19.36076355 27.99871826 C19.36488754 29.00550125 19.36901154 30.01228424 19.3732605 31.04957581 C19.36247467 32.14793259 19.35168884 33.24628937 19.34057617 34.37792969 C19.34123329 36.11981819 19.34123329 36.11981819 19.34190369 37.89689636 C19.33981216 41.7387264 19.31646312 45.58012111 19.29296875 49.421875 C19.28737409 52.084175 19.28295583 54.74645083 19.28010559 57.40875244 C19.27078412 63.70211174 19.24616907 69.99531456 19.21605712 76.28860497 C19.1825162 83.4541983 19.1660279 90.61979912 19.15097082 97.78545141 C19.11961951 112.52372524 19.06460622 127.26183105 19 142 C7.12 142 -4.76 142 -17 142 C-17.27197744 126.76089491 -17.49255809 111.52290066 -17.62174606 96.28197479 C-17.68335388 89.20353166 -17.76717545 82.12671474 -17.90527344 75.04931641 C-18.02573092 68.87297803 -18.10249393 62.69781811 -18.12906194 56.52033758 C-18.14457112 53.25522095 -18.18690864 49.99421578 -18.26876068 46.72999573 C-18.62201533 32.04765103 -18.45454133 21.30287893 -8.07208252 10.21350098 C-7.55947121 9.69193924 -7.04685989 9.1703775 -6.5187149 8.63301086 C-4.03716419 5.96470277 -2.05692573 3.0028938 0 0 Z " fill="#FD75A7" transform="translate(255,286)"/>
<path d="M0 0 C0.33 0 0.66 0 1 0 C1 31.68 1 63.36 1 96 C-44.23791685 96.16121214 -44.23791685 96.16121214 -63.20703125 96.1953125 C-76.30035678 96.21903921 -89.39357928 96.24691947 -102.48681641 96.30175781 C-112.02291748 96.34167872 -121.5589349 96.36744545 -131.09511721 96.37635398 C-136.14253067 96.38155981 -141.18970485 96.39375927 -146.23704147 96.42292023 C-150.99273649 96.45017231 -155.74809479 96.45842524 -160.50386047 96.45243073 C-162.24446572 96.45352659 -163.98508281 96.46142196 -165.72562027 96.4768219 C-179.35777428 96.59146891 -188.68947954 95.01049591 -198.859375 85.3203125 C-201.79748328 82.13557469 -205 78.5459871 -205 74 C-137.35 74 -69.7 74 0 74 C-0.33 50.9 -0.66 27.8 -1 4 C-1 1 -1 1 0 0 Z " fill="#FAA1C4" transform="translate(222,332)"/>
<path d="M0 0 C11.88 0 23.76 0 36 0 C36.1582588 12.13514573 36.28663418 24.26960416 36.3626852 36.40554905 C36.39918934 42.04102026 36.44868922 47.6757478 36.52807617 53.31079102 C36.604235 58.7508517 36.6460115 64.19019794 36.6641407 69.63075066 C36.67705698 71.70443912 36.70228048 73.77808925 36.7401104 75.85147285 C36.79106994 78.76064086 36.79791799 81.66687221 36.79467773 84.57641602 C36.81984467 85.43021851 36.8450116 86.284021 36.87094116 87.16369629 C36.8128625 91.99553103 36.09708352 94.40979117 32.62538147 97.86851501 C32.01535813 98.39224669 31.4053348 98.91597837 30.7768259 99.45558071 C27.41761719 102.37540911 24.9972894 106.13924779 22.38867188 109.72070312 C21.30212705 111.18016505 20.15585939 112.59479617 19 114 C18.34 114 17.68 114 17 114 C15.75185669 112.59321977 14.5769161 111.12120296 13.4375 109.625 C12.81746094 108.81289062 12.19742188 108.00078125 11.55859375 107.1640625 C11.19265106 106.67067383 10.82670837 106.17728516 10.44967651 105.66894531 C8.98294175 103.87761999 8.98294175 103.87761999 6.81228638 102.26074219 C2.54477935 98.53162344 -0.10556113 95.15386443 -0.79447937 89.46957397 C-1.15872961 83.79939082 -1.01310788 78.13701447 -0.87890625 72.4609375 C-0.86209862 70.3677546 -0.84929764 68.27453604 -0.84031677 66.18130493 C-0.80612202 60.69936592 -0.71786425 55.21960849 -0.61798096 49.73852539 C-0.52554449 44.13457749 -0.48473038 38.53027346 -0.43945312 32.92578125 C-0.34322791 21.94941313 -0.1850611 10.97523014 0 0 Z " fill="#FD75A7" transform="translate(238,84)"/>
<path d="M0 0 C9.18938986 2.62553996 15.28243542 7.44392316 20.0625 15.8125 C22.28255736 20.14990745 23.12566322 23.90310181 23.12025452 28.77093506 C23.12232076 30.2024119 23.12232076 30.2024119 23.12442875 31.66280746 C23.11903159 33.22915625 23.11903159 33.22915625 23.11352539 34.82714844 C23.11364593 35.94770756 23.11376646 37.06826668 23.11389065 38.22278214 C23.11314399 41.85166658 23.10552691 45.48049973 23.09765625 49.109375 C23.09618607 51.34912084 23.09516583 53.58886703 23.09460449 55.82861328 C23.08936045 64.13574743 23.07539926 72.44287422 23.0625 80.75 C23.041875 99.3125 23.02125 117.875 23 137 C-15.61 137 -54.22 137 -94 137 C-93.505 135.02 -93.505 135.02 -93 133 C-93 133.99 -93 134.98 -93 136 C-62.31 136 -31.62 136 0 136 C0 91.12 0 46.24 0 0 Z " fill="#FCA2C5" transform="translate(474,86)"/>
<path d="M0 0 C6.77290887 4.59728996 12.27886707 10.8413191 13.9375 19 C14.83499637 26.91313704 13.74112597 33.096217 9.0859375 39.578125 C3.3778265 46.47626621 -1.90775613 50.09177848 -10.7890625 51.40234375 C-17.85846805 51.81057703 -23.30495469 50.0989147 -29.0625 46 C-35.22359053 40.48854826 -39.31209584 34.85125267 -40.37109375 26.59375 C-40.79574914 18.25506228 -37.99213442 12.09981629 -32.8125 5.6875 C-24.53269089 -3.00890328 -11.02870825 -5.59015281 0 0 Z " fill="#FA90B8" transform="translate(269.0625,220)"/>
<path d="M0 0 C0.55252441 0.19118408 1.10504883 0.38236816 1.67431641 0.5793457 C19.51347788 6.65374098 36.19749929 7.54823934 55 7 C52.04440183 12.40796499 48.70785753 17.34843397 45.0625 22.3125 C43.90354048 23.90356909 42.7446895 25.49471726 41.5859375 27.0859375 C40.99393555 27.89643555 40.40193359 28.70693359 39.79199219 29.54199219 C36.9090096 33.4964702 34.04941321 37.46776299 31.1875 41.4375 C26.4725184 47.96870097 21.74556654 54.4909752 17 61 C15.12692627 58.19038941 14.55322124 56.70338922 13.8515625 53.5078125 C13.54992187 52.20263672 13.54992187 52.20263672 13.2421875 50.87109375 C12.83277421 49.04946374 12.42906643 47.22654144 12.03125 45.40234375 C10.86221444 40.39324834 9.84230917 36.66765875 6 33 C-2.43004662 29.22101358 -11.92766694 28.37993415 -21 27 C-21 23.40076127 -20.42522032 23.00381073 -18.0625 20.4375 C-17.42699219 19.73753906 -16.79148438 19.03757812 -16.13671875 18.31640625 C-15.43160156 17.55199219 -14.72648438 16.78757812 -14 16 C-12.45642547 14.29339034 -10.91479348 12.58502191 -9.375 10.875 C-8.62089844 10.0396875 -7.86679688 9.204375 -7.08984375 8.34375 C-4.65660255 5.61488136 -2.31090581 2.83272325 0 0 Z " fill="#F9347F" transform="translate(182,278)"/>
<path d="M0 0 C2.45433952 1.70841281 4.21763516 3.62803554 6.1796875 5.88671875 C7.34757812 7.22089844 7.34757812 7.22089844 8.5390625 8.58203125 C9.34859375 9.50757813 10.158125 10.433125 10.9921875 11.38671875 C13.37250106 13.98140838 15.75569889 16.5733078 18.14453125 19.16015625 C19.83501798 21.19731785 20.8653853 23.01617324 21.9921875 25.38671875 C21.3216333 25.52770996 20.6510791 25.66870117 19.96020508 25.81396484 C16.90736677 26.45858492 13.85603526 27.1100812 10.8046875 27.76171875 C9.74958984 27.9834375 8.69449219 28.20515625 7.60742188 28.43359375 C6.58583984 28.65273438 5.56425781 28.871875 4.51171875 29.09765625 C3.57432861 29.29665527 2.63693848 29.4956543 1.67114258 29.70068359 C-3.82998864 31.1094304 -6.99107581 32.4190759 -10.0078125 37.38671875 C-11.33117913 41.26874223 -12.3031843 45.21267192 -13.2578125 49.19921875 C-13.5259375 50.27365234 -13.7940625 51.34808594 -14.0703125 52.45507812 C-14.72769312 55.09633956 -15.37306965 57.73994281 -16.0078125 60.38671875 C-20.14140644 56.51521863 -23.30813628 52.35934816 -26.5078125 47.69921875 C-27.56542985 46.17900775 -28.62405856 44.65949995 -29.68359375 43.140625 C-30.22838379 42.3583252 -30.77317383 41.57602539 -31.33447266 40.77001953 C-34.07878473 36.86135678 -36.88848388 33.00060026 -39.6953125 29.13671875 C-55.0078125 8.00012638 -55.0078125 8.00012638 -55.0078125 6.38671875 C-54.23816162 6.4024292 -53.46851074 6.41813965 -52.67553711 6.43432617 C-27.69166787 7.16535286 -27.69166787 7.16535286 -4.05859375 -0.0390625 C-2.0078125 -0.61328125 -2.0078125 -0.61328125 0 0 Z " fill="#FA347F" transform="translate(330.0078125,278.61328125)"/>
<path d="M0 0 C7.59 0 15.18 0 23 0 C23 11.88 23 23.76 23 36 C15.41 36 7.82 36 0 36 C0 24.12 0 12.24 0 0 Z " fill="#FE5694" transform="translate(474,238)"/>
<path d="M0 0 C11.88 0 23.76 0 36 0 C36 7.26 36 14.52 36 22 C24.12 22 12.24 22 0 22 C0 14.74 0 7.48 0 0 Z " fill="#FB5592" transform="translate(238,406)"/>
</svg>
